<svg width="800" height="537" viewBox="0 0 800 537" fill="none" xmlns="http://www.w3.org/2000/svg">
<path fill-rule="evenodd" clip-rule="evenodd" d="M713.947 383.027C713.947 370.667 712.16 357.453 708.734 343.96C705.68 346.133 702.014 347.213 697.747 347.213H681.747V382.4C681.747 385.107 682.307 387.04 683.454 388.16C684.574 389.307 686.494 389.88 689.2 389.88H699.867C705.12 389.88 709.48 391.52 712.894 394.787L713.027 394.92C713.64 391.133 713.947 387.16 713.947 383.027ZM561.76 323.213C557.907 323.213 554.84 324.52 552.574 327.147C550.28 329.773 549.067 333.44 548.947 338.12H574.547C574.4 333.44 573.187 329.773 570.92 327.147C568.627 324.52 565.587 323.213 561.76 323.213ZM698.227 313.067C671.667 250.84 613.467 192.013 539.374 192.013C480.974 192.013 431.84 229.013 400.92 276H430.56C450.014 276 465.2 280.707 476.08 290.08C486.947 299.48 492.414 312.56 492.414 329.333C492.414 346.12 486.947 359.213 476.08 368.587C465.2 377.973 450.014 382.667 430.56 382.667H410.28V406.12C410.28 412.107 408.134 417.147 403.867 421.267C399.6 425.4 394.267 427.453 387.894 427.453C386.707 427.453 385.56 427.387 384.454 427.24C394.827 435.493 409.747 440.427 429.747 441.333L539.374 427.253L645.947 441.333C669.8 441.333 687.28 435.027 698.534 424H684.96C676.12 424 668.414 422.267 661.787 418.773C655.16 415.293 650.08 410.4 646.534 404.067C642.974 397.733 641.2 390.52 641.2 382.4V346.973C636.667 346.413 632.854 344.64 629.787 341.64C626.72 338.667 625.2 334.827 625.2 330.12C625.2 325.44 626.72 321.6 629.787 318.6C632.854 315.627 636.667 313.853 641.2 313.267V306.667C641.2 301.267 643.12 296.733 646.96 293.027C650.787 289.307 655.64 287.453 661.48 287.453C667.307 287.453 672.147 289.307 675.974 293.027C679.814 296.733 681.747 301.267 681.747 306.667V313.067H697.747H698.227ZM615.094 343.453C615.094 348.88 613.147 353.44 609.32 357.12C605.48 360.827 600.654 362.667 594.814 362.667H548.947C549.24 373.333 554.574 378.667 564.947 378.667C567.92 378.667 570.76 378.36 573.467 377.707C576.174 377.08 579.24 375.973 582.654 374.4C587.334 372.267 591.054 371.213 593.76 371.213C598.44 371.213 602.28 372.56 605.28 375.267C608.254 377.973 609.76 381.227 609.76 385.067C609.76 387.48 609.027 389.973 607.614 392.547C606.187 395.107 604.054 397.373 601.214 399.36C592.96 405.48 580.147 408.547 562.814 408.547C552 408.547 542.48 406.4 534.24 402.147C525.987 397.88 519.614 392 515.134 384.547C510.654 377.08 508.427 368.707 508.427 359.453V340.267C508.427 331.027 510.654 322.667 515.134 315.213C519.614 307.747 525.907 301.88 534 297.6C542.107 293.36 551.36 291.213 561.76 291.213C572.134 291.213 581.36 293.36 589.467 297.6C597.574 301.88 603.854 307.747 608.36 315.213C612.84 322.667 615.094 331.027 615.094 340.267V343.453ZM410.28 344.267H430.56C435.24 344.267 439.08 342.893 442.08 340.107C445.054 337.333 446.56 333.747 446.56 329.333C446.56 324.933 445.054 321.36 442.08 318.56C439.08 315.787 435.24 314.4 430.56 314.4H410.28V344.267Z" fill="#46008A"/>
<path fill-rule="evenodd" clip-rule="evenodd" d="M347.534 139.733C385.094 156.827 395.24 190 395.24 217.147C395.24 243.28 379 275.453 345.507 275.453C301.867 275.453 280.547 224.187 280.547 196.04C280.547 169.893 294.76 136.72 331.294 136.72C333.334 136.72 342.467 137.733 347.534 139.733Z" fill="#46008A"/>
<path fill-rule="evenodd" clip-rule="evenodd" d="M530.24 91.48C530.24 122.653 512.987 183.973 462.227 183.973C409.454 183.973 394.227 120.64 394.227 91.48C394.227 62.3333 409.454 0 462.227 0C512.987 0 530.24 62.3333 530.24 91.48Z" fill="#46008A"/>
<path fill-rule="evenodd" clip-rule="evenodd" d="M685.534 91.48C685.534 122.653 668.28 183.973 617.534 183.973C589.107 183.973 564.747 162.867 554.6 127.68C553.587 121.64 550.534 109.573 550.534 107.573V76.4C552.574 41.2133 579.974 0 617.534 0C669.294 0 685.534 62.3333 685.534 91.48Z" fill="#46008A"/>
<path fill-rule="evenodd" clip-rule="evenodd" d="M799.213 196.04C799.213 224.187 776.88 275.453 734.253 275.453C714.973 275.453 696.693 263.387 687.56 240.267C686.547 236.253 684.52 229.213 684.52 227.2V207.093C688.573 172.92 714.973 136.72 748.467 136.72C783.987 136.72 799.213 169.893 799.213 196.04Z" fill="#46008A"/>
<path fill-rule="evenodd" clip-rule="evenodd" d="M90.6667 414C97.5067 414 102.947 412.187 107 408.56C111.053 404.933 113.093 400.36 113.093 394.787C113.093 389.253 111.053 384.667 107 381.04C102.947 377.413 97.5067 375.6 90.6667 375.6H44.8133V283.88C44.8133 277.92 42.6667 272.853 38.4 268.733C34.1333 264.6 28.8 262.547 22.4267 262.547C16 262.547 10.6667 264.6 6.4 268.733C2.13333 272.853 0 277.92 0 283.88V392.667C0 398.64 2.13333 403.693 6.4 407.813C10.6667 411.933 16 414 22.4267 414H90.6667Z" fill="black"/>
<path fill-rule="evenodd" clip-rule="evenodd" d="M216.546 302C210.72 302 205.853 303.853 202.026 307.547C198.186 311.253 196.28 315.787 196.28 321.213V368.12C196.28 373.253 195.093 377.213 192.76 379.973C190.4 382.747 187.32 384.12 183.48 384.12C179.626 384.12 176.52 382.747 174.186 379.973C171.84 377.213 170.666 373.253 170.666 368.12V321.213C170.666 315.787 168.733 311.253 164.906 307.547C161.066 303.853 156.24 302 150.426 302C144.586 302 139.733 303.853 135.906 307.547C132.066 311.253 130.146 315.787 130.146 321.213V368.12C130.146 378.52 131.84 387.413 135.253 394.813C138.666 402.213 143.36 407.787 149.333 411.56C155.293 415.307 162.066 417.213 169.613 417.213C176 417.213 181.586 415.773 186.36 412.933C191.106 410.107 194.426 406.893 196.28 403.333H198.626C199.626 406.333 201.573 409.027 204.48 411.44C207.4 413.853 211.426 415.067 216.546 415.067C222.386 415.067 227.213 413.227 231.053 409.52C234.88 405.827 236.813 401.293 236.813 395.88V321.213C236.813 315.787 234.88 311.253 231.053 307.547C227.213 303.853 222.386 302 216.546 302Z" fill="black"/>
<path fill-rule="evenodd" clip-rule="evenodd" d="M326.427 379.88C324.84 382.147 322.667 383.96 319.907 385.307C317.134 386.667 314.32 387.333 311.48 387.333C308.36 387.333 305.96 386.6 304.333 385.107C302.693 383.6 301.88 381.493 301.88 378.787C301.88 376.547 302.853 374.547 304.853 372.827C306.853 371.12 309.427 370.267 312.547 370.267H326.427V379.88ZM312.547 299.88C299.88 299.88 289.44 302.587 281.187 307.973C272.947 313.4 268.813 319.587 268.813 326.547C268.813 331.373 270.334 335.253 273.4 338.16C276.44 341.08 280.614 342.547 285.88 342.547C288.854 342.547 291.427 342.08 293.547 341.147C295.667 340.227 297.96 338.627 300.387 336.36C302.654 334.227 304.654 332.773 306.36 331.973C308.067 331.187 310.134 330.787 312.547 330.787C321.507 330.787 326.134 336.12 326.427 346.787H312.547C295.054 346.787 282.133 350.107 273.813 356.733C265.48 363.36 261.333 372.48 261.333 384.12C261.333 390.107 262.907 395.627 266.027 400.667C269.147 405.733 273.467 409.747 278.947 412.733C284.4 415.707 290.627 417.213 297.614 417.213C303.294 417.213 308.734 415.92 313.92 413.373C319.107 410.813 323.28 407.453 326.427 403.333H328.76C329.88 406.627 332.054 409.4 335.254 411.667C338.467 413.933 342.253 415.067 346.667 415.067C352.92 415.067 357.88 413.253 361.507 409.627C365.134 406 366.947 401.413 366.947 395.88V346.787C366.947 337.827 364.774 329.813 360.44 322.693C356.107 315.587 349.813 310 341.573 305.96C333.32 301.92 323.627 299.88 312.547 299.88Z" fill="black"/>
<path fill-rule="evenodd" clip-rule="evenodd" d="M430.547 536.4C435.667 536.4 440.72 535.213 445.667 532.88C450.627 530.547 454.547 527.4 457.427 523.44C461.147 519.4 463.027 515.773 463.027 512.56C463.027 511.187 462.547 510.067 461.587 509.213C460.627 508.36 459.4 507.92 457.907 507.92C455.854 507.92 453.907 509.373 451.987 512.253C447.187 521.413 440.054 526 430.547 526C424.054 526 418.667 524 414.467 520C410.254 516 408.147 511.08 408.147 505.213V485.52C408.147 479.667 410.254 474.733 414.467 470.733C418.667 466.733 424.054 464.733 430.547 464.733C439.067 464.733 445.427 468.52 449.587 476.08C450.76 477.893 451.774 479.12 452.694 479.773C453.614 480.413 454.694 480.733 455.987 480.733C457.48 480.733 458.72 480.293 459.667 479.373C460.627 478.453 461.107 477.307 461.107 475.92C461.107 474.547 460.694 472.96 459.907 471.213C459.107 469.453 458 467.773 456.627 466.16C453.627 462.44 449.84 459.52 445.254 457.44C440.667 455.36 435.76 454.307 430.547 454.307C424.054 454.307 418.174 455.733 412.947 458.56C407.72 461.4 403.614 465.213 400.627 470C397.627 474.813 396.147 479.973 396.147 485.52V505.213C396.147 510.747 397.627 515.933 400.627 520.733C403.614 525.52 407.72 529.333 412.947 532.16C418.174 534.973 424.054 536.4 430.547 536.4Z" fill="#46008A"/>
<path fill-rule="evenodd" clip-rule="evenodd" d="M508.427 526.307C503.613 526.307 499.813 525.107 497.053 522.64C494.28 520.187 492.907 517.04 492.907 513.213C492.907 509.04 494.333 505.667 497.213 503.04C500.093 500.44 504.093 499.12 509.213 499.12H534V514.787C530.8 518.213 526.853 521 522.173 523.12C517.467 525.253 512.88 526.307 508.427 526.307ZM513.693 454.307C509.52 454.307 505.613 455.027 501.947 456.4C498.253 457.787 495.027 459.707 492.253 462.16C490 463.973 488.24 465.88 486.907 467.827C485.573 469.813 484.907 471.6 484.907 473.213C484.907 474.587 485.387 475.733 486.333 476.64C487.293 477.56 488.467 478 489.853 478C491.027 478 492.107 477.747 493.133 477.213C494.133 476.667 495.173 475.773 496.253 474.48C498.587 471.067 501.147 468.587 503.92 467.04C506.693 465.493 509.947 464.733 513.693 464.733C519.773 464.733 524.667 466.493 528.4 470C532.133 473.52 534 478.067 534 483.6V489.52H509.213C503.547 489.52 498.573 490.6 494.253 492.733C489.92 494.853 486.627 497.773 484.333 501.44C482.053 505.12 480.907 509.147 480.907 513.52C480.907 517.693 481.987 521.493 484.173 524.96C486.36 528.44 489.4 531.213 493.293 533.293C497.173 535.36 501.573 536.4 506.48 536.4C511.28 536.4 516.093 535.36 520.88 533.293C525.667 531.213 529.693 528.52 532.907 525.213H534V528.733C534 530.44 534.573 531.88 535.693 533.04C536.813 534.187 538.28 534.787 540.093 534.787C541.8 534.787 543.187 534.253 544.32 533.213C545.44 532.147 546 530.813 546 529.213V483.6C546 478.267 544.627 473.373 541.92 468.893C539.213 464.413 535.4 460.88 530.48 458.253C525.573 455.627 519.987 454.307 513.693 454.307Z" fill="#46008A"/>
<path fill-rule="evenodd" clip-rule="evenodd" d="M605.214 455.12C601.147 455.12 597.547 456.067 594.401 457.933C591.254 459.813 588.734 462.227 586.814 465.213H585.854V461.52C585.854 460.147 585.294 458.853 584.174 457.693C583.054 456.52 581.521 455.92 579.614 455.92C577.907 455.92 576.481 456.453 575.361 457.52C574.241 458.6 573.694 459.933 573.694 461.52V529.213C573.694 530.813 574.241 532.147 575.361 533.213C576.481 534.253 577.907 534.787 579.614 534.787C581.427 534.787 582.881 534.253 584.001 533.213C585.134 532.147 585.694 530.813 585.694 529.213V483.92C585.694 478.813 587.467 474.48 591.054 470.893C594.627 467.307 599.094 465.52 604.427 465.52H613.694C615.281 465.52 616.521 465.08 617.441 464.16C618.361 463.253 618.814 462 618.814 460.4C618.814 458.813 618.361 457.52 617.441 456.56C616.521 455.6 615.281 455.12 613.694 455.12H605.214Z" fill="#46008A"/>
<path fill-rule="evenodd" clip-rule="evenodd" d="M667.88 464.733C674.387 464.733 679.734 466.733 683.947 470.733C688.147 474.733 690.28 479.667 690.28 485.52V490.307H645.48V485.52C645.48 479.667 647.614 474.733 651.88 470.733C656.134 466.733 661.467 464.733 667.88 464.733ZM667.88 454.307C661.387 454.307 655.507 455.733 650.28 458.56C645.054 461.4 640.947 465.213 637.96 470C634.96 474.813 633.48 479.973 633.48 485.52V505.213C633.48 510.747 634.96 515.933 637.96 520.733C640.947 525.52 645.054 529.333 650.28 532.16C655.507 534.973 661.387 536.4 667.88 536.4C679.067 536.4 688.094 533 694.92 526.16C698.214 523.187 699.88 520.413 699.88 517.827C699.88 516.56 699.44 515.48 698.587 514.56C697.734 513.667 696.667 513.213 695.4 513.213C694.214 513.213 693.174 513.44 692.28 513.853C691.36 514.267 690.28 515.12 689 516.4C686.214 519.4 683.147 521.733 679.8 523.44C676.427 525.147 672.467 526 667.88 526C661.387 526 656 524 651.8 520C647.587 516 645.48 511.08 645.48 505.213V500.4H696.36C698.067 500.4 699.467 499.88 700.587 498.813C701.72 497.747 702.28 496.413 702.28 494.787V485.52C702.28 479.973 700.774 474.813 697.8 470C694.8 465.213 690.694 461.4 685.467 458.56C680.24 455.733 674.387 454.307 667.88 454.307Z" fill="#46008A"/>
</svg>
